<?xml version="1.0" encoding="iso-8859-1"?>
<!-- Generator: Adobe Illustrator 19.0.0, SVG Export Plug-In . SVG Version: 6.00 Build 0)  -->
<svg version="1.1" id="Capa_1" xmlns="http://www.w3.org/2000/svg" xmlns:xlink="http://www.w3.org/1999/xlink" x="0px" y="0px"
	 viewBox="0 0 488.495 488.495" style="enable-background:new 0 0 488.495 488.495;" xml:space="preserve">
<ellipse style="fill:#FF7043;" cx="246.35" cy="244.847" rx="240.2" ry="237"/>
<path style="fill:#37474F;" d="M398.95,55.247c-1.1-1.5-2.6-2.7-4.3-3.4c-106.3-83.1-259.8-64.3-342.8,42s-64.3,259.7,42,342.8
	s259.7,64.3,342.8-42C518.35,290.047,501.65,139.347,398.95,55.247z M448.05,157.547c-25.5-23-54.9-41.4-86.8-54.2
	c2.5-13.9,12.3-25.4,25.6-30.1C413.65,96.147,434.55,125.047,448.05,157.547z M341.05,96.247c-15.3-5-30.9-8.8-46.8-11.4
	c0.1-18.6,0.2-38.3,0.2-59.3c26.4,6.4,51.5,17.7,73.9,33.1C354.75,67.147,344.95,80.647,341.05,96.247z M273.15,21.447
	c0,21.8,0,42.1-0.2,61.2c-14.7-1.4-29.6-1.8-44.4-1.3c-2.3-17.9-11-34.4-24.5-46.4c-4.7-3.9-10-7.2-15.7-9.6
	c17.3-4.3,35-6.5,52.7-6.5C251.85,18.947,262.55,19.747,273.15,21.447z M146.65,40.047h0.2c15.4-2,30.9,2.1,43.4,11.2
	c8.9,8.3,14.7,19.3,16.5,31.3c-58.6,4.4-115,23.8-163.9,56.4C65.85,95.547,102.25,60.847,146.65,40.047z M24.75,186.047
	c0.5-0.4,1-0.9,1.4-1.5c21.3-33.6,96.4-72.7,183-80.9v0.5c0,45.4-55.4,108.8-99.8,159.7c-25.2,25.8-47,54.5-65.2,85.5
	C16.95,299.347,9.95,240.947,24.75,186.047L24.75,186.047z M59.35,373.147c0.2-0.8,0.4-1.5,0.5-2.3c0-17.9,33.3-56.1,65.6-92.9
	c49.3-56.4,105.1-120.4,105.1-173.7c0-0.7-0.1-1.2-0.1-1.9c14.1-0.5,28.3-0.1,42.4,1.2c-2.5,216.9-17.2,261.3-72.8,358
	c-0.2,0.4-0.3,0.8-0.4,1.3C142.95,452.047,92.85,419.947,59.35,373.147z M221.95,465.847c56.9-100.3,69.9-154.3,72.1-359.7
	c14.8,2.4,29.3,5.9,43.5,10.5c-0.2,2.9-0.4,5.7-0.4,8.8c3,44.1,14.7,87.1,34.4,126.6c22.7,54.4,44.1,105.9,20.3,156
	c-41.1,37.8-94.9,58.8-150.7,58.8C234.75,466.847,228.35,466.447,221.95,465.847z M423.15,372.947c3.7-43.6-14.3-86.8-32-129
	c-18.4-37-29.5-77.2-32.7-118.4c0-0.3,0-0.6,0-0.9c39.8,16.9,75,43.2,102.5,76.5C472.75,261.147,459.05,323.347,423.15,372.947z"/>
<g>
</g>
<g>
</g>
<g>
</g>
<g>
</g>
<g>
</g>
<g>
</g>
<g>
</g>
<g>
</g>
<g>
</g>
<g>
</g>
<g>
</g>
<g>
</g>
<g>
</g>
<g>
</g>
<g>
</g>
</svg>
