<?xml version="1.0" encoding="iso-8859-1"?>
<!-- Generator: Adobe Illustrator 19.0.0, SVG Export Plug-In . SVG Version: 6.00 Build 0)  -->
<svg version="1.1" id="Capa_1" xmlns="http://www.w3.org/2000/svg" xmlns:xlink="http://www.w3.org/1999/xlink" x="0px" y="0px"
	 viewBox="0 0 512.001 512.001" style="enable-background:new 0 0 512.001 512.001;" xml:space="preserve">
<path style="fill:#FF803C;" d="M143.312,238.176c-39.557,39.509-69.895,17.645-107.514,55.088
	c-43.867,43.661-34.891,119.915,14.203,168.78c50.752,50.514,126.656,56.855,169.549,14.162
	c37.506-37.331,15.728-67.12,55.532-106.818c7.133-7.114,53.303-23.324,77.508-55.321c58.719-77.621-140.247,36.974-55.173-97.058
	C200.478,120.189,158.763,222.744,143.312,238.176z"/>
<path style="fill:#F76328;" d="M328.439,285.511c7.521,2.767,7.881,10.407-5.849,28.556c-24.205,31.997-60.213,30.955-67.346,38.069
	c-39.804,39.698-28.188,86.739-65.694,124.07c-15.562,15.489-35.471,24.518-56.946,27.331c32.477,4.069,64.309-4.8,86.946-27.331
	c37.506-37.331,15.728-67.12,55.532-106.818c7.133-7.114,53.303-23.324,77.508-55.321
	C377.849,280.677,355.425,282.856,328.439,285.511z"/>
<polygon style="fill:#595959;" points="239.667,342.691 169.2,272.553 195.625,246.252 266.093,316.39 "/>
<polygon style="fill:#464646;" points="239.711,342.735 218.399,321.753 244.781,295.408 266.093,316.39 "/>
<polygon style="fill:#595959;" points="184.466,397.611 113.998,327.473 140.424,301.172 210.891,371.31 "/>
<polygon style="fill:#464646;" points="184.509,397.655 163.351,376.826 189.733,350.481 210.891,371.31 "/>
<circle style="fill:#FFDEA9;" cx="158.29" cy="460.44" r="16.999"/>
<polygon style="fill:#595959;" points="125.466,433.017 78.717,386.325 97.227,367.838 143.976,414.53 "/>
<polygon style="fill:#FFDEA9;" points="245.833,296.225 215.884,266.416 409.136,74.069 439.085,103.877 "/>
<path style="fill:#595959;" d="M502.74,43.96L457.9,98.5L430,120.42l-21.18-21.15l-17.14-17.1l21.92-27.84l54.35-45.05
	c2.3-2.01,5.24-2.37,6.79-0.82l7.75,7.74l21.05,21.01C505.08,38.75,504.73,41.67,502.74,43.96z"/>
<path style="fill:#464646;" d="M502.74,43.96L457.9,98.5L430,120.42l-21.18-21.15l0.01-0.01l27.91-21.93l44.83-54.54
	c1.94-2.22,2.3-5.02,0.92-6.59l21.05,21.01C505.08,38.75,504.73,41.67,502.74,43.96z"/>
<path d="M200.666,481.846c-19.878,13.027-45.297,17.831-71.571,13.533c-26.926-4.405-53.137-18.16-73.804-38.73
	C29.687,431.169,15.001,397.52,15,364.331c-0.001-26.062,9.021-48.817,26.089-65.804c8.556-8.512,17.29-14.358,27.489-18.398
	c3.851-1.525,5.735-5.883,4.21-9.733c-1.526-3.85-5.886-5.736-9.735-4.21c-12.156,4.814-22.497,11.713-32.545,21.71
	C10.834,307.477-0.001,334.622,0,364.331c0.001,37.151,16.297,74.674,44.708,102.947C74.093,496.525,111.883,512,147.767,512
	c21.858,0,43.009-5.742,61.122-17.61c3.464-2.27,4.432-6.918,2.161-10.383C208.78,480.544,204.131,479.576,200.666,481.846z"/>
<path d="M184.466,405.044c1.914,0,3.828-0.728,5.291-2.184l26.426-26.298c1.414-1.407,2.209-3.32,2.209-5.315
	s-0.795-3.908-2.209-5.315l-70.468-70.126c-2.928-2.912-7.656-2.912-10.582,0l-26.426,26.298c-1.414,1.407-2.209,3.32-2.209,5.315
	s0.795,3.908,2.209,5.315l70.468,70.126C180.638,404.316,182.552,405.044,184.466,405.044z M140.424,311.701l59.836,59.547
	l-15.794,15.718l-59.836-59.547L140.424,311.701z"/>
<path d="M173.018,440.792c-5.231-3.934-11.679-5.595-18.158-4.679c-6.48,0.916-12.214,4.3-16.148,9.529
	c-8.121,10.794-5.945,26.18,4.85,34.3c4.291,3.227,9.401,4.925,14.677,4.925c1.155,0,2.317-0.082,3.481-0.246
	c6.48-0.916,12.214-4.3,16.148-9.528c3.935-5.229,5.597-11.676,4.681-18.155C181.632,450.459,178.248,444.725,173.018,440.792z
	 M165.881,466.077c-1.525,2.027-3.749,3.339-6.262,3.694c-2.51,0.354-5.013-0.289-7.04-1.815c-4.186-3.148-5.029-9.114-1.88-13.299
	c1.863-2.478,4.716-3.784,7.602-3.784c1.988,0,3.992,0.62,5.699,1.904c2.028,1.525,3.341,3.748,3.695,6.26
	C168.051,461.549,167.407,464.049,165.881,466.077z"/>
<path d="M398.808,154.529c2.936-2.921,2.947-7.669,0.025-10.605c-2.719-2.731-7.015-2.928-9.965-0.591l-19.309-19.306l26.767-26.637
	l19.261,19.224l-4.707,4.633c-2.952,2.906-2.989,7.654-0.083,10.605c1.468,1.49,3.406,2.238,5.345,2.238
	c1.9,0,3.801-0.717,5.262-2.155l5.022-4.943c1.109,0.601,2.339,0.909,3.575,0.909c1.629,0,3.265-0.529,4.631-1.602l9.136-7.176
	l10.205,10.19c1.464,1.462,3.382,2.193,5.3,2.193c1.921,0,3.842-0.733,5.307-2.2c2.927-2.93,2.924-7.678-0.007-10.605l-8.923-8.91
	l6.891-5.412c0.427-0.335,0.816-0.716,1.161-1.135l3.098-3.768l8.524,8.511c1.465,1.462,3.382,2.193,5.3,2.193
	c1.921,0,3.843-0.734,5.307-2.2c2.928-2.931,2.924-7.678-0.007-10.605l-9.554-9.539l9.69-11.786l10.625,10.61
	c1.464,1.462,3.382,2.193,5.3,2.193c1.921,0,3.842-0.733,5.307-2.2c2.927-2.93,2.924-7.678-0.007-10.605L495.63,64.41l12.85-15.629
	c4.549-5.305,4.712-12.544,0.363-16.885L480.037,3.148c-4.359-4.352-11.622-4.168-16.933,0.41l-15.53,12.87L436.093,4.961
	c-2.93-2.926-7.679-2.924-10.607,0.006c-2.927,2.93-2.924,7.678,0.007,10.605l10.482,10.468l-11.744,9.732l-9.499-9.485
	c-2.932-2.925-7.681-2.923-10.607,0.007c-2.927,2.931-2.924,7.678,0.007,10.605l8.499,8.485l-3.81,3.157
	c-0.408,0.338-0.779,0.719-1.106,1.135l-5.398,6.856l-8.934-8.92c-2.933-2.926-7.68-2.923-10.607,0.007s-2.924,7.678,0.007,10.605
	l10.19,10.174l-7.182,9.121c-2.152,2.733-2.115,6.54-0.032,9.225l-32.081,31.925c-0.014,0.014-0.029,0.025-0.043,0.039
	c-0.013,0.013-0.023,0.027-0.036,0.039l-73.406,73.048c-23.856-18.134-46.595-25.799-67.655-22.775
	c-33.699,4.835-54.393,35.149-66.758,53.261c-3.078,4.509-5.985,8.767-7.769,10.55c-16.348,16.325-30.936,21.171-43.325,24.432
	c-4.006,1.055-6.398,5.156-5.344,9.161c0.886,3.365,3.924,5.591,7.248,5.591c0.632,0,1.274-0.081,1.914-0.249
	c15.334-4.036,32.017-10.262,50.11-28.327c2.778-2.778,5.769-7.158,9.554-12.703c11.683-17.113,29.338-42.974,56.5-46.871
	c16.494-2.366,34.895,3.896,54.783,18.618l-53.566,53.305l-14.968-14.896c-2.926-2.912-7.656-2.912-10.582,0l-26.426,26.298
	c-1.414,1.408-2.209,3.32-2.209,5.315s0.795,3.908,2.209,5.315l70.468,70.127c1.463,1.456,3.377,2.184,5.291,2.184
	s3.828-0.728,5.291-2.184l26.426-26.298c1.414-1.408,2.209-3.32,2.209-5.315s-0.795-3.908-2.209-5.315l-14.922-14.85l15.187-15.112
	c1.037,1.804,2.318,3.451,3.854,4.928c11.527,11.089,32.917,8.983,53.6,6.948c8.79-0.866,23.269-2.29,27.01-0.371
	c-0.107,1.325-1.172,5.917-9.503,16.929c-16.056,21.221-42.555,35.146-60.09,44.361c-8.326,4.375-13.827,7.265-16.736,10.165
	c-21.674,21.616-26.519,41.238-30.793,58.551c-3.295,13.345-6.407,25.949-16.81,39.34c-2.54,3.271-1.948,7.982,1.323,10.522
	c1.368,1.062,2.987,1.577,4.596,1.577c2.236,0,4.45-0.996,5.929-2.899c12.355-15.906,15.999-30.668,19.525-44.945
	c4.174-16.904,8.115-32.869,26.822-51.526c1.343-1.319,7.601-4.608,13.122-7.509c17.578-9.237,46.998-24.698,65.075-48.589
	c8.373-11.068,16.199-23.691,10.761-33.398c-5.968-10.65-21.738-9.098-41.7-7.134c-15.677,1.543-35.19,3.463-41.732-2.83
	c-0.966-0.93-2.167-2.512-2.418-5.897L398.808,154.529 M328.93,202.902l-19.271-19.268l19.318-19.223l19.271,19.268L328.93,202.902z
	 M298.98,232.704l-19.27-19.267l0,0c0.028-0.028-0.028,0.028,0,0l19.318-19.224l19.27,19.267L298.98,232.704z M239.668,332.054
	l-59.836-59.547l15.794-15.718l0,0c0.028,0.029-0.028-0.028,0,0l59.836,59.547l0,0L239.668,332.054z M226.517,266.371l42.561-42.353
	l19.27,19.266l-42.517,42.307L226.517,266.371z M378.199,153.876l-19.318,19.223l-19.272-19.268l19.318-19.223L378.199,153.876z
	 M430.593,110.4L401.7,81.561l17.307-21.981l0,0c0.014-0.011-0.014,0.011,0,0l52.637-43.62l24.389,24.342L452.632,93.09
	L430.593,110.4z"/>
<path d="M91.927,362.471l-18.51,18.484c-1.409,1.407-2.2,3.315-2.2,5.306c0,1.99,0.791,3.899,2.2,5.306l46.749,46.684
	c1.464,1.462,3.382,2.193,5.3,2.193s3.836-0.731,5.3-2.193l12.993-12.975l13.735,3.27c4.354,1.035,8.753,1.548,13.125,1.548
	c10.128,0,20.107-2.749,28.993-8.099l37.96-22.877c3.547-2.138,4.689-6.746,2.552-10.293c-2.139-3.547-6.746-4.688-10.296-2.551
	l-37.957,22.875c-9.334,5.62-20.308,7.326-30.905,4.808l-10.078-2.399c-0.374-0.889-0.917-1.707-1.613-2.401l-46.749-46.684
	C99.598,359.547,94.854,359.547,91.927,362.471z M125.466,422.347L89.33,386.261l7.897-7.886l36.136,36.086L125.466,422.347z"/>
<g>
</g>
<g>
</g>
<g>
</g>
<g>
</g>
<g>
</g>
<g>
</g>
<g>
</g>
<g>
</g>
<g>
</g>
<g>
</g>
<g>
</g>
<g>
</g>
<g>
</g>
<g>
</g>
<g>
</g>
</svg>
