<svg height="512pt" viewBox="0 0 512 512.19644" width="512pt" xmlns="http://www.w3.org/2000/svg"><path d="m374.359375 313.980469c-9.667969-16.953125-15.167969-35.964844-16.042969-55.464844l-2.902344-66.816406c-.714843-15.199219-8.761718-29.101563-21.585937-37.289063l-66.648437-42.414062c-10.015626-6.414063-22.121094-8.707032-33.789063-6.398438l-75.09375 14.335938c-3.648437.691406-7.140625 2.019531-10.328125 3.925781l62.636719-11.945313c11.667969-2.308593 23.777343-.015624 33.792969 6.398438l66.644531 42.410156c12.824219 8.1875 20.875 22.09375 21.589843 37.292969l2.898438 66.8125c.875 19.5 6.375 38.511719 16.042969 55.46875l24.066406 41.472656-19.710937 13.738281 5.628906 5.714844 36.863281-25.769531zm-168.363281-100.777344-24.917969 24.832031 7.9375 8.535156 24.917969-24.832031zm0 0" fill="#c52828"/><path d="m351.574219 320.296875c-9.667969-16.957031-15.167969-35.96875-16.042969-55.46875l-2.898438-66.8125c-.714843-15.199219-8.765624-29.105469-21.589843-37.292969l-66.644531-42.410156c-10.015626-6.414062-22.125-8.707031-33.792969-6.398438l-62.636719 11.945313c-2.0625 1.199219-3.980469 2.628906-5.714844 4.265625-18.78125 17.625-19.773437 47.117188-2.21875 65.964844l41.042969 43.945312 15.363281 1.023438 17.492188-17.320313 14.847656-14.851562 12.96875 13.910156c10.371094 11.085937 10.027344 28.414063-.765625 39.082031l23.464844 23.640625 11.691406 11.773438 4.523437-7.335938v-.085937l21.246094-34.816406.941406 19.625c.429688 11.917968 2.378907 23.734374 5.800782 35.15625l2.390625 8.363281 16.46875 30.722656 28.417969 28.585937 19.710937-13.738281zm-137.554688-129.109375-13.824219-14.847656-7.425781-7.9375-2.644531-2.816406 36.863281-5.117188zm0 0" fill="#f44335"/><path d="m374.019531 76.585938c-1.28125.339843-2.601562.515624-3.925781.511718h-45.652344c-5.121094 0-8.535156 2.558594-8.535156 7.765625-.015625 5.128907-4.171875 9.285157-9.300781 9.300781h-28.074219c-.425781-.511718-.769531-.941406-1.109375-1.367187-.394531-.402344-.765625-.832031-1.109375-1.277344-26.285156-31.917969-15.445312-76.800781 38.65625-82.261719 3.765625-.425781 7.558594-.625 11.347656-.597656 40.277344 0 55.722656 24.917969 61.695313 43.945313 2.070312 10.382812-3.9375 20.675781-13.992188 23.980469zm0 0" fill="#c52828"/><path d="m352.515625 76.585938c-1.28125.339843-2.601563.515624-3.925781.511718h-24.148438c-5.121094 0-17.835937 11.859375-17.835937 17.066406 0 5.203126-16.382813 0-21.503907 0h-6.570312c-.425781-.511718-.769531-.941406-1.109375-1.367187-.394531-.402344-.765625-.832031-1.109375-1.277344-26.285156-31.917969-15.445312-76.800781 38.65625-82.261719 24.609375 2.121094 45.234375 19.46875 51.539062 43.347657 2.070313 10.382812-3.9375 20.675781-13.992187 23.980469zm0 0" fill="#f44335"/><path d="m240.984375 259.878906-.085937-.082031c-.171876.167969-.257813.425781-.425782.59375-11.371094 10.484375-29.058594 9.875-39.679687-1.363281l-10.582031-11.265625v-.082031l-1.195313-1.109376 39.765625-39.683593 12.96875 13.910156c10.371094 11.085937 10.027344 28.414063-.765625 39.082031zm0 0" fill="#37474f"/><path d="m326.488281 387.964844-47.871093 79.957031h-.085938l-50.347656-25.257813.851562-1.363281 38.742188-65.621093h-75.945313c-6.207031.007812-12 3.113281-15.445312 8.277343l-5.546875 8.445313c-24.917969 37.203125-57.574219 68.582031-95.742188 91.988281l-22.785156 14.421875 20.648438-13.140625-12.457032-17.75-19.625-28.074219-8.535156 5.375 26.625-16.894531c22.511719-14.363281 41.730469-33.324219 56.40625-55.636719l47.273438-71.851562c9.675781-14.742188 17.988281-30.339844 24.832031-46.589844l.683593-1.539062 2.046876-4.949219 7.167968 7.679687 3.414063 3.585938c1.238281 1.332031 2.613281 2.53125 4.09375 3.582031l.171875.085937c4.273437 3.011719 9.292968 4.78125 14.507812 5.121094l74.835938 84.140625zm0 0" fill="#9e9e9e"/><path d="m305.582031 375.679688-47.871093 79.957031h-.085938l-28.589844-14.335938 13.144532-10.925781 32.339843-54.695312 7.253907-12.289063h-110.847657c-6.207031.011719-12 3.113281-15.445312 8.277344l-5.546875 8.445312c-23.445313 35.117188-53.890625 65.011719-89.429688 87.808594-2.046875 1.453125-4.179687 2.816406-6.316406 4.183594l-22.78125 14.421875 20.648438-13.144532-19.710938-28.160156 26.625-16.894531c22.511719-14.363281 41.730469-33.324219 56.40625-55.636719l47.273438-71.851562c9.675781-14.742188 17.988281-30.339844 24.832031-46.589844l.683593-1.539062c2.882813 1.449218 6.003907 2.375 9.214844 2.730468.425782 0 .851563.085938 1.28125.085938l6.226563 7.082031.171875.085937 68.4375 76.972657zm0 0" fill="#cfd8dc"/><path d="m278.53125 467.921875-12.972656 21.675781c-3.851563 6.664063-10.28125 11.449219-17.773438 13.226563-7.492187 1.773437-15.382812.386719-21.820312-3.839844-.324219-.171875-.613282-.40625-.851563-.683594-11.871093-8.953125-15.007812-25.457031-7.253906-38.144531l7.253906-12.285156 3.070313-5.207032zm0 0" fill="#37474f"/><path d="m72.960938 485.671875-20.648438 13.140625c-6.164062 4.140625-13.722656 5.660156-21.007812 4.21875-7.285157-1.441406-13.695313-5.722656-17.820313-11.898438-.316406-.464843-.601563-.949218-.851563-1.449218-7.535156-12.730469-3.832031-29.125 8.445313-37.375l14.335937-8.960938 5.464844-3.5zm0 0" fill="#37474f"/><path d="m256.171875 463.402344-12.96875 21.671875c-3.921875 6.742187-10.480469 11.539062-18.089844 13.226562-11.871093-8.953125-15.007812-25.457031-7.253906-38.144531l7.253906-12.285156zm0 0" fill="#607d8b"/><path d="m55.894531 472.617188-20.648437 13.140624c-6.644532 4.449219-14.859375 5.875-22.613282 3.925782-7.535156-12.730469-3.832031-29.125 8.445313-37.375l14.335937-8.960938zm0 0" fill="#607d8b"/><path d="m394.414062 407.59375c-1.566406.761719-3.191406 1.390625-4.863281 1.875l-27.992187-28.246094 36.863281-25.769531 7.683594 13.140625c3.796875 6.6875 4.695312 14.632812 2.488281 22-2.207031 7.363281-7.332031 13.503906-14.179688 17zm0 0" fill="#37474f"/><path d="m382.296875 89.214844c-.007813 13.90625-5.542969 27.242187-15.386719 37.070312-9.839844 9.828125-23.1875 15.339844-37.09375 15.324219-3.464844-.007813-6.917968-.324219-10.324218-.941406-23.292969-3.828125-41.007813-22.984375-43.011719-46.503907-.082031-.855468-.167969-1.792968-.167969-2.644531.34375.445313.714844.875 1.109375 1.277344.339844.425781.683594.855469 1.109375 1.367187h28.074219c5.128906-.015624 9.285156-4.171874 9.300781-9.300781 0-5.207031 3.414062-7.765625 8.535156-7.765625h45.652344c1.324219.003906 2.644531-.171875 3.925781-.511718 1.25-.246094 2.457031-.679688 3.582031-1.28125 1.792969 5.289062 4.695313 8.019531 4.695313 13.910156zm0 0" fill="#bfa885"/><path d="m362.15625 89.214844c.011719 25.183594-17.914062 46.800781-42.664062 51.453125-23.292969-3.828125-41.007813-22.984375-43.011719-46.503907h30.125c5.128906-.015624 9.285156-4.171874 9.300781-9.300781 0-5.207031 3.414062-7.765625 8.535156-7.765625h25.511719c1.328125.003906 2.648437-.171875 3.925781-.511718 1.253906-.246094 2.460938-.679688 3.585938-1.28125.253906.597656.425781 1.195312.679687 1.792968 2.28125 3.664063 3.65625 7.816406 4.011719 12.117188zm0 0" fill="#ffe0b2"/><path d="m503.640625 426.621094c.660156 15.925781-11.339844 29.542968-27.222656 30.890625l-61.183594 11.519531c-4.945313.933594-10.054687.371094-14.675781-1.621094-3.519532-1.449218-6.667969-3.664062-9.21875-6.484375l-64.851563-72.960937-32.085937-36.007813-74.835938-84.140625c1.992188.085938 3.992188 0 5.972656-.257812 5.589844-.8125 10.800782-3.3125 14.933594-7.167969.167969-.167969.253906-.425781.425782-.59375l.085937.082031 35.15625 35.414063 21.589844 21.761719 6.230469 6.226562 85.589843 86.1875.765625.769531c2.335938 2.351563 5.121094 4.210938 8.191406 5.460938 4.625 1.980469 9.734376 2.542969 14.679688 1.621093l55.464844-10.410156 6.65625-1.28125c1.367187-.253906 2.644531-.511718 3.839844-.683594 6.253906-1 12.625.855469 17.367187 5.050782 4.742187 4.199218 7.355469 10.296875 7.125 16.625zm0 0" fill="#f57c00"/><path d="m480.515625 426.621094c.660156 15.925781-11.339844 29.542968-27.222656 30.890625l-52.734375 9.898437c-3.519532-1.449218-6.667969-3.664062-9.21875-6.484375l-64.851563-72.960937-32.085937-36.007813-74.835938-84.140625c1.992188.085938 3.992188 0 5.972656-.257812l27.476563 27.734375 21.589844 21.761719 6.230469 6.226562 85.585937 86.1875.769531.769531c6 5.96875 14.546875 8.617188 22.871094 7.082031l8.445312-1.621093 53.675782-10.070313c1.367187-.253906 2.644531-.511718 3.839844-.683594 4.3125-.667968 8.726562.015626 12.628906 1.964844 7.554687 3.59375 12.222656 11.355469 11.863281 19.710938zm0 0" fill="#ff9801"/><path d="m221.304688 276.425781c-10.121094.019531-19.796876-4.167969-26.707032-11.5625l-10.597656-11.296875c-3.230469-3.4375-3.0625-8.839844.375-12.066406 3.433594-3.230469 8.835938-3.058594 12.066406.375l10.597656 11.332031c7.363282 7.84375 19.6875 8.253907 27.554688.914063 7.851562-7.347656 8.265625-19.671875.921875-27.527344l-51.636719-55.203125c-2.171875-2.210937-2.976562-5.425781-2.101562-8.398437.878906-2.972657 3.296875-5.234376 6.320312-5.910157 3.027344-.679687 6.179688.335938 8.238282 2.652344l51.652343 55.191406c9.953125 10.628907 12.644531 26.152344 6.847657 39.511719-5.796876 13.355469-18.96875 21.996094-33.53125 21.988281zm0 0"/><path d="m306.605469 102.671875h-28.074219c-2.527344 0-4.925781-1.117187-6.546875-3.054687l-.953125-1.179688c-.511719-.535156-.964844-1.082031-1.402344-1.628906-15.429687-17.046875-19.597656-41.488282-10.691406-62.6875 10.214844-21.605469 34.78125-33.996094 67.378906-33.996094 32.140625-1.945312 61.253906 18.871094 69.804688 49.914062 1.929687 6.792969 1.03125 14.082032-2.492188 20.207032-3.632812 6.914062-9.839844 12.125-17.28125 14.503906l-.195312.050781c-1.988282.535157-4.035156.800781-6.09375.796875h-45.617188c-.453125 9.53125-8.292968 17.039063-17.835937 17.074219zm-24.089844-17.066406h24.089844c.421875-.011719.757812-.347657.769531-.769531-.15625-4.503907 1.617188-8.863282 4.878906-11.976563 3.257813-3.113281 7.691406-4.683594 12.1875-4.320313h45.652344c.554688.003907 1.109375-.0625 1.644531-.199218 2.992188-1.140625 5.449219-3.351563 6.90625-6.203125 1.285157-2.097657 1.71875-4.613281 1.210938-7.023438-7.894531-25.121093-25.914063-37.921875-53.539063-37.921875-25.769531 0-44.671875 8.832032-51.941406 24.21875-5.976562 15.074219-2.816406 32.238282 8.140625 44.195313zm0 0"/><path d="m410.558594 477.992188c-9.773438.003906-19.082032-4.15625-25.601563-11.433594l-171.773437-193.101563c-2.292969-2.582031-2.804688-6.292969-1.292969-9.398437 1.511719-3.105469 4.746094-4.996094 8.195313-4.785156 5.21875.367187 10.363281-1.402344 14.25-4.90625.214843-.246094.46875-.519532.613281-.65625 3.351562-3.269532 8.714843-3.230469 12.015625.09375l149.394531 150.390624c3.992187 4.019532 9.71875 5.792969 15.28125 4.738282l62.125-11.71875c1.457031-.273438 2.832031-.503906 4.128906-.699219 8.828125-1.351563 17.796875 1.316406 24.449219 7.269531 6.566406 5.851563 10.171875 14.332032 9.828125 23.117188.53125 19.90625-14.332031 36.871094-34.132813 38.964844l-61.226562 11.546874c-2.0625.386719-4.15625.578126-6.253906.578126zm-174.609375-204.613282 161.773437 181.839844c3.996094 4.46875 10.035156 6.523438 15.925782 5.417969l61.21875-11.546875c5.726562-.292969 11.097656-2.875 14.90625-7.167969 3.804687-4.292969 5.726562-9.933594 5.332031-15.660156.171875-3.710938-1.351563-7.300781-4.136719-9.761719-2.882812-2.539062-6.742188-3.675781-10.539062-3.105469-1.101563.164063-2.261719.367188-3.492188.597657l-62.113281 11.714843c-11.125 2.101563-22.570313-1.453125-30.546875-9.488281l-144.070313-145.066406c-1.367187.835937-2.789062 1.582031-4.257812 2.226562zm0 0"/><path d="m241.230469 512.125c-7.078125-.011719-14-2.085938-19.917969-5.972656-16.398438-11.199219-21.171875-33.269532-10.871094-50.242188l42.394532-71.757812h-60.988282c-3.386718.011718-6.546875 1.714844-8.421875 4.539062l-5.433593 8.378906c-25.578126 38.210938-59.113282 70.441407-98.304688 94.488282l-22.800781 14.507812c-16.796875 11.183594-39.476563 6.636719-50.660157-10.15625-11.183593-16.796875-6.632812-39.476562 10.160157-50.660156l38.023437-24.125c21.519532-13.691406 39.878906-31.804688 53.863282-53.136719l47.207031-71.808593c9.375-14.320313 17.445312-29.457032 24.105469-45.226563l.589843-1.414063-46.414062-49.683593c-20.769531-22.277344-19.597657-57.164063 2.621093-78 5.652344-5.296875 12.6875-8.878907 20.292969-10.335938l75.039063-14.359375c13.839844-2.660156 28.175781.085938 40.046875 7.679688l66.5625 42.359375c15.203125 9.671875 24.730469 26.15625 25.53125 44.160156l2.945312 66.753906c.796875 18.144531 5.917969 35.832031 14.941407 51.59375l31.648437 54.613281c4.984375 8.703126 6.1875 19.066407 3.332031 28.683594-2.859375 9.613282-9.523437 17.636719-18.453125 22.207032-2.058593 1.046874-4.222656 1.882812-6.449219 2.492187-2.980468.832031-6.175781-.011719-8.355468-2.207031l-91.765625-92.453125c-2.515625-2.523438-3.195313-6.34375-1.707031-9.582031 1.453124-3.265626 4.824218-5.25 8.386718-4.933594.539063 0 1.066406.085937 1.597656.136718-2.542968-9.035156-4.257812-18.28125-5.121093-27.628906l-11.375 18.695313c-1.367188 2.238281-3.683594 3.722656-6.289063 4.03125-2.601562.304687-5.203125-.601563-7.050781-2.460938l-29.917969-30.105469c-1.371094.824219-2.796875 1.554688-4.265625 2.183594l96.921875 108.953125c2.480469 2.789063 2.863282 6.863281.949219 10.0625l-60.9375 101.546875c-6.574219 11.253906-18.625 18.175782-31.660156 18.183594zm-49.382813-145.066406h75.949219c3.0625 0 5.894531 1.644531 7.414063 4.304687 1.515624 2.664063 1.492187 5.933594-.066407 8.574219l-49.957031 84.574219c-5.566406 9.125-3.214844 20.992187 5.410156 27.304687 4.488282 2.949219 9.988282 3.914063 15.210938 2.675782 5.222656-1.242188 9.703125-4.578126 12.386718-9.230469l57.769532-96.304688-102.78125-115.5c-2.292969-2.582031-2.804688-6.292969-1.292969-9.398437 1.511719-3.105469 4.746094-4.996094 8.195313-4.785156 5.21875.367187 10.363281-1.402344 14.25-4.90625.214843-.238282.46875-.519532.613281-.664063 3.355469-3.269531 8.71875-3.222656 12.015625.101563l27.570312 27.75 20.089844-32.929688c1.949219-3.203125 5.765625-4.757812 9.398438-3.828125 3.632812.925781 6.238281 4.117187 6.414062 7.863281l.929688 19.628906c.453124 11.246094 2.285156 22.398438 5.453124 33.203126l2.140626 7.328124 2.84375 4.882813c1.929687 3.300781 1.429687 7.488281-1.230469 10.238281l71.039062 71.511719c4.257813-2.503906 7.394531-6.539063 8.773438-11.28125 1.546875-5.144531.90625-10.703125-1.765625-15.359375l-31.632813-54.574219c-10.394531-18.132812-16.296875-38.492187-17.214843-59.375l-2.917969-66.738281c-.554688-12.4375-7.136719-23.824219-17.636719-30.515625l-66.558594-42.359375c-8.210937-5.234375-18.113281-7.125-27.675781-5.28125l-75.042969 14.363281c-4.433594.839844-8.539062 2.925781-11.835937 6.015625-15.351563 14.398438-16.164063 38.503906-1.816407 53.902344l50.152344 53.667969c2.28125 2.445312 2.925782 5.996093 1.644532 9.085937l-2.703126 6.546875c-7.078124 16.730469-15.644531 32.789063-25.601562 47.984375l-47.28125 71.832032c-15.308594 23.34375-35.40625 43.167968-58.957031 58.15625l-37.855469 24.011718c-8.894531 6.039063-11.210938 18.144532-5.171875 27.042969 6.039063 8.894531 18.148437 11.210937 27.042969 5.171875l22.980468-14.609375c37.128907-22.742187 68.910157-53.238281 93.167969-89.398437l5.476563-8.4375c5.042968-7.597657 13.546875-12.175782 22.664062-12.203126zm22.1875-167.414063c-2.359375 0-4.617187-.980469-6.230468-2.707031l-23.890626-25.597656c-2.175781-2.328125-2.871093-5.675782-1.808593-8.675782 1.066406-3.003906 3.710937-5.164062 6.867187-5.601562l36.898438-5.121094c3.039062-.402344 6.0625.859375 7.917968 3.300782 1.851563 2.441406 2.253907 5.691406 1.050782 8.511718l-12.980469 30.71875c-1.113281 2.675782-3.511719 4.605469-6.363281 5.121094-.492188.070312-.988282.101562-1.484375.09375zm-6.503906-27.886719 3.714844 3.96875 2.011718-4.761718zm0 0"/><path d="m241.230469 512.125c-7.078125-.011719-14-2.085938-19.917969-5.972656-16.398438-11.199219-21.171875-33.269532-10.871094-50.242188l.054688-.097656 10.332031-17.484375c2.277344-3.855469 7.152344-5.296875 11.160156-3.292969l50.417969 25.199219c2.125 1.0625 3.710938 2.964844 4.375 5.246094.664062 2.285156.34375 4.738281-.878906 6.777343l-13.011719 21.699219c-6.578125 11.25-18.628906 18.164063-31.660156 18.167969zm-16.015625-47.675781c-5.625 9.136719-3.292969 21.058593 5.359375 27.402343 4.484375 2.945313 9.988281 3.914063 15.210937 2.675782 5.222656-1.242188 9.703125-4.582032 12.382813-9.230469l8.339843-13.902344-35.0625-17.527343zm0 0"/><path d="m36.867188 512.125c-16.097657.042969-30.324219-10.449219-35.039063-25.839844-4.710937-15.386718 1.199219-32.050781 14.558594-41.027344l.195312-.128906 19.6875-12.515625c3.851563-2.445312 8.945313-1.425781 11.5625 2.3125l32.136719 45.890625c1.335938 1.910156 1.835938 4.28125 1.378906 6.566406-.457031 2.285157-1.828125 4.285157-3.792968 5.535157l-20.667969 13.113281c-5.917969 3.980469-12.890625 6.101562-20.019531 6.09375zm-11.09375-52.660156c-8.914063 6.011718-11.269532 18.109375-5.261719 27.023437 6.007812 8.914063 18.105469 11.269531 27.019531 5.261719l13.3125-8.457031-22.269531-31.898438zm0 0"/><path d="m389.566406 417.996094c-2.277344-.011719-4.457031-.933594-6.050781-2.5625l-28.03125-28.21875c-1.773437-1.785156-2.667969-4.265625-2.445313-6.773438.222657-2.507812 1.542969-4.789062 3.605469-6.230468l36.914063-25.789063c1.960937-1.371094 4.402344-1.859375 6.738281-1.34375 2.332031.519531 4.34375 1.988281 5.542969 4.058594l7.621094 13.15625c4.980468 8.707031 6.183593 19.070312 3.328124 28.683593-2.855468 9.613282-9.523437 17.640626-18.449218 22.210938-2.0625 1.046875-4.222656 1.878906-6.453125 2.492188-.753907.210937-1.535157.316406-2.320313.316406zm-14.832031-35.578125 16.878906 16.992187c4.25-2.492187 7.386719-6.511718 8.773438-11.238281 1.546875-5.144531.90625-10.703125-1.765625-15.359375l-2.929688-5.054688zm0 0"/><path d="m189.050781 255.058594c-3.453125 0-6.5625-2.078125-7.882812-5.265625-1.320313-3.191407-.589844-6.859375 1.847656-9.300781l39.699219-39.671876c2.140625-2.21875 5.3125-3.105468 8.296875-2.324218 2.984375.777344 5.3125 3.109375 6.09375 6.09375.78125 2.980468-.105469 6.15625-2.324219 8.296875l-39.699219 39.679687c-1.601562 1.597656-3.769531 2.496094-6.03125 2.492188zm0 0"/><path d="m222.039062 17.191406h-93.867187c-4.710937 0-8.53125-3.820312-8.53125-8.53125 0-4.714844 3.820313-8.535156 8.53125-8.535156h93.867187c4.714844 0 8.535157 3.820312 8.535157 8.535156 0 4.710938-3.820313 8.53125-8.535157 8.53125zm0 0"/><path d="m222.039062 51.324219h-42.664062c-4.714844 0-8.535156-3.820313-8.535156-8.53125 0-4.714844 3.820312-8.535157 8.535156-8.535157h42.664062c4.714844 0 8.535157 3.820313 8.535157 8.535157 0 4.710937-3.820313 8.53125-8.535157 8.53125zm0 0"/><path d="m136.707031 256.125h-59.734375c-4.710937 0-8.53125-3.820312-8.53125-8.53125 0-4.714844 3.820313-8.535156 8.53125-8.535156h59.734375c4.710938 0 8.53125 3.820312 8.53125 8.535156 0 4.710938-3.820312 8.53125-8.53125 8.53125zm0 0"/><path d="m136.707031 290.257812h-25.601562c-4.710938 0-8.53125-3.820312-8.53125-8.53125 0-4.714843 3.820312-8.535156 8.53125-8.535156h25.601562c4.710938 0 8.53125 3.820313 8.53125 8.535156 0 4.710938-3.820312 8.53125-8.53125 8.53125zm0 0"/><path d="m329.808594 150.175781c-33.144532.554688-60.679688-25.433593-62.039063-58.554687-.035156-3.503906 2.074219-6.675782 5.324219-7.996094 3.246094-1.316406 6.96875-.515625 9.386719 2.023438h24.125c.421875-.011719.757812-.347657.769531-.769532-.15625-4.503906 1.617188-8.863281 4.878906-11.976562 3.257813-3.113282 7.691406-4.683594 12.1875-4.320313h45.652344c.574219-.003906 1.148438-.078125 1.707031-.222656.589844-.097656 1.164063-.28125 1.707031-.539063 2.210938-1.199218 4.839844-1.363281 7.179688-.445312 2.34375.917969 4.164062 2.824219 4.96875 5.207031.480469 1.300781 1.050781 2.566407 1.707031 3.789063 2.226563 3.925781 3.421875 8.347656 3.484375 12.859375-.070312 33.667969-27.375 60.925781-61.039062 60.945312zm-43.144532-47.503906c6.265626 18.421875 23.6875 30.710937 43.144532 30.4375 24.253906-.019531 43.917968-19.667969 43.953125-43.921875-.007813-1.300781-.335938-2.582031-.953125-3.726562-.902344.09375-1.808594.144531-2.714844.144531h-45.652344c-.457031 9.523437-8.285156 17.023437-17.820312 17.066406zm0 0"/></svg>