<?xml version="1.0" encoding="iso-8859-1"?>
<!-- Generator: Adobe Illustrator 22.1.0, SVG Export Plug-In . SVG Version: 6.00 Build 0)  -->
<svg xmlns="http://www.w3.org/2000/svg" xmlns:xlink="http://www.w3.org/1999/xlink" version="1.1" id="Layer_1_1_" x="0px" y="0px" viewBox="0 0 64 64" style="enable-background:new 0 0 64 64;" xml:space="preserve" width="512" height="512">
<g>
	<g>
		<path style="fill:#E6E9ED;" d="M32,61.03V62h-6V28h6v13.32c-0.14,0.09-0.27,0.19-0.38,0.3C31.24,42,31,42.54,31,43.12    c0,0.56,0.22,1.1,0.62,1.5L32,45V61.03z"/>
		<path style="fill:#FFEAA7;" d="M22,24h14h1c0.55,0,1,0.45,1,1v2c0,0.55-0.45,1-1,1h-5h-6h-5c-0.55,0-1-0.45-1-1v-2    c0-0.55,0.45-1,1-1H22z"/>
		<path style="fill:#FFEAA7;" d="M20,25v2c0,0.55-0.45,1-1,1H3c-0.55,0-1-0.45-1-1v-2c0-0.55,0.45-1,1-1h1h6h9    C19.55,24,20,24.45,20,25z"/>
		<path style="fill:#FFEAA7;" d="M56,25v2c0,0.55-0.45,1-1,1H39c-0.55,0-1-0.45-1-1v-2c0-0.55,0.45-1,1-1h15h1    C55.55,24,56,24.45,56,25z"/>
		<path style="fill:#FF826E;" d="M31,4v2h-1h-2h-1V4c0-1.1,0.9-2,2-2c0.55,0,1.05,0.22,1.41,0.59C30.78,2.95,31,3.45,31,4z"/>
		<path style="fill:#FF826E;" d="M39,24c-0.55,0-1,0.45-1,1c0-0.55-0.45-1-1-1h-1L30,6h1l23,18H39z"/>
		<path style="fill:#FF826E;" d="M27,6h1l-6,18h-1c-0.55,0-1,0.45-1,1c0-0.55-0.45-1-1-1h-9H4L27,6z"/>
		<polygon style="fill:#E6E9ED;" points="30,6 36,24 22,24 28,6   "/>
		<path style="fill:#969FAA;" d="M22,62H2c0-1.1,0.45-2.1,1.17-2.83C3.9,58.45,4.9,58,6,58h4h4h4C20.21,58,22,59.79,22,62z"/>
		<rect x="10" y="46" style="fill:#CCD1D9;" width="4" height="12"/>
		<path style="fill:#FFEAA7;" d="M22,43v2c0,0.55-0.45,1-1,1h-7h-4H3c-0.55,0-1-0.45-1-1v-2c0-0.55,0.45-1,1-1h18    C21.55,42,22,42.45,22,43z"/>
		<path style="fill:#AAB2BD;" d="M41.24,53H48l3,9H38l3-9v-0.01C41.08,53,41.16,53,41.24,53z"/>
		<path style="fill:#DFB28B;" d="M34.62,41.62l6.5,6.5c0.56,0.56,1.33,0.88,2.12,0.88h7.52c0.79,0,1.56,0.32,2.12,0.88l8.5,8.5    c0.4,0.4,0.62,0.94,0.62,1.5c0,0.58-0.24,1.12-0.62,1.5C61,61.76,60.46,62,59.88,62c-0.56,0-1.1-0.22-1.5-0.62l-7.5-7.5    C50.32,53.32,49.55,53,48.76,53H48h-6.76c-0.08,0-0.16,0-0.24-0.01c-0.71-0.06-1.38-0.37-1.88-0.87L32,45l-0.38-0.38    c-0.4-0.4-0.62-0.94-0.62-1.5c0-0.58,0.24-1.12,0.62-1.5c0.11-0.11,0.24-0.21,0.38-0.3c0.33-0.2,0.71-0.32,1.12-0.32    C33.68,41,34.22,41.22,34.62,41.62z"/>
	</g>
	<path d="M62.086,57.672l-8.5-8.5C52.83,48.416,51.825,48,50.757,48h-7.515c-0.534,0-1.036-0.208-1.415-0.586l-6.5-6.5   C34.739,40.324,33.955,40,33.121,40c-0.041,0-0.08,0.011-0.121,0.012V29h4c0.366,0,0.705-0.106,1-0.278   C38.295,28.894,38.634,29,39,29h16c1.103,0,2-0.897,2-2v-2c0-1.103-0.897-2-2-2h-0.656L32,5.513V4c0-1.654-1.346-3-3-3   s-3,1.346-3,3v1.513L3.656,23H3c-1.103,0-2,0.897-2,2v2c0,1.103,0.897,2,2,2h16c0.366,0,0.705-0.106,1-0.278   C20.295,28.894,20.634,29,21,29h4v32h-2.101c-0.464-2.279-2.485-4-4.899-4h-3V47h6c1.103,0,2-0.897,2-2v-2c0-1.103-0.897-2-2-2H3   c-1.103,0-2,0.897-2,2v2c0,1.103,0.897,2,2,2h6v10H6c-2.757,0-5,2.243-5,5v1h51.387l-2.959-8.877   c0.275,0.098,0.53,0.25,0.744,0.463l7.5,7.5C58.261,62.676,59.045,63,59.879,63C61.6,63,63,61.6,63,59.879   C63,59.057,62.667,58.253,62.086,57.672z M3,43h18l0.001,2H3V43z M11,47h2v10h-2V47z M3.171,61C3.584,59.836,4.696,59,6,59h12   c1.304,0,2.416,0.836,2.829,2H3.171z M38.414,52.828c0.379,0.378,0.819,0.671,1.299,0.87L37.279,61H33V47.414L38.414,52.828z    M55.001,27H39v-2h16L55.001,27z M39,23c-0.366,0-0.705,0.106-1,0.278C37.705,23.106,37.366,23,37,23h-0.279L31.646,7.775L51.1,23   H39z M29.279,7l5.333,16H23.388l5.333-16H29.279z M28,4c0-0.552,0.449-1,1-1s1,0.448,1,1v1h-2V4z M3,27v-2h7v-2H6.9L26.354,7.775   L21.279,23H21c-0.366,0-0.705,0.106-1,0.278C19.705,23.106,19.366,23,19,23h-7v2h7v2H3z M21,25h16v2H21V25z M27,29h4v11.845   c-0.611,0.57-1,1.376-1,2.276c0,0.822,0.333,1.626,0.914,2.207L31,45.414V61h-4V29z M39.388,61l2.333-7h5.558l2.334,7H39.388z    M59.879,61c-0.3,0-0.581-0.116-0.793-0.328l-7.5-7.5C50.83,52.416,49.825,52,48.757,52h-7.515c-0.534,0-1.036-0.208-1.415-0.586   l-7.5-7.5C32.12,43.705,32,43.416,32,43.121C32,42.503,32.503,42,33.121,42c0.3,0,0.581,0.116,0.793,0.328l6.5,6.5   C41.17,49.584,42.175,50,43.243,50h7.515c0.534,0,1.036,0.208,1.415,0.586l8.5,8.5C60.88,59.295,61,59.584,61,59.879   C61,60.497,60.497,61,59.879,61z"/>
</g>
</svg>
